<svg version="1.1" id="Capa_1" xmlns="http://www.w3.org/2000/svg" xmlns:xlink="http://www.w3.org/1999/xlink" x="0px" y="0px"
	 viewBox="0 0 2122 2122" style="enable-background:new 0 0 2122 2122;" xml:space="preserve">
<g>
	<g>
		<path style="fill:#fed100;" d="M892.458,1479.547l4.487-9.164l-8.209,6.061c-2.127,1.569-4.227,3.045-6.3,4.424
			c-30.582,20.312-63.198,37.964-96.948,52.458c-8.657,3.727-99.369,33.345-104.363,34.076l0.139,2.451l-2.495,0.166
			c0.831,13.179,2.136,26.889,3.88,40.75c7.379,58.625,22.563,116.024,45.13,170.596c2.663,6.436,5.389,12.853,8.253,19.196
			c3.411,7.581,7.63,14.87,15.35,16.882c1.362,0.361,2.733,0.512,4.09,0.512c4.39,0,8.636-1.578,11.947-2.811
			c20.307-7.517,42.049-15.688,63.432-24.453l1.598-0.658l-0.214-6.416c-2.624-82.149,7.203-158.602,29.206-227.245
			C869.747,1530.455,880.183,1504.608,892.458,1479.547z"/>
		<path style="fill:#fed100;" d="M1808.328,1506.523c-28.302-36.55-55.98-61.047-87.108-77.106c-0.244-0.122-0.492-0.244-0.741-0.36
			l-0.463-0.224c-29.149-26.354-70.786-43.391-107.527-58.427c-8.448-3.459-16.424-6.723-23.971-9.983
			c-52.35-22.636-106.777-42.865-161.778-60.121c-0.185-0.059-0.405-0.025-0.57,0.102c-0.161,0.127-0.248,0.326-0.239,0.531
			c0.492,7.484,0.921,14.855,1.276,21.91c1.018,20.156,1.388,39.742-5.164,57.764c-5.793,15.937-16.624,29.393-27.216,41.813
			c-23.65,27.693-52.921,58.124-90.685,73.875c-40.058,16.687-83.644,12.044-111.04-11.824
			c-30.182-26.324-36.838-68.467-41.466-112.994c-1.413-13.613-3.284-27.844-5.082-41.257c-0.024-0.185-0.132-0.346-0.287-0.448
			c-0.166-0.097-0.351-0.127-0.531-0.058c-11.372,3.795-26.387,8.784-41.69,13.656c-39.703,12.638-81.354,28.005-116.979,54.684
			c-8.911,6.67-17.532,14.597-25.627,23.566c-69.598,77.145-80.558,208.438-82.261,246.835c-1.296,29.272-2.672,63.956-3.042,99.264
			c-0.819,78.383,3.688,145.73,14.614,218.358c0.046,0.307,0.307,0.531,0.616,0.531h814.895c0.176,0,0.341-0.073,0.458-0.2
			c0.117-0.132,0.18-0.302,0.166-0.477c-2.173-25.764-5.808-58.602-7.785-75.888c-2.865-24.726-5.135-42.392-5.818-46.46
			c-1.062-6.246-2.27-12.673-3.439-18.89c-0.692-3.663-1.384-7.337-2.056-11.025c61.934-21.876,126.304-41.515,191.342-58.373
			l1.082-0.283c8.541-2.212,17.374-4.497,26.095-6.65c0.287-0.068,0.487-0.336,0.473-0.633
			C1902.734,1674.786,1868.688,1584.462,1808.328,1506.523z M1577.634,1659.883c-0.521,0.984-1.744,1.656-3.094,1.052
			c-16.775-7.556-37.184-18.353-46.153-34.943h-0.005c-0.341-0.629,0.024-1.082,0.146-1.203c0.171-0.176,0.443-0.326,0.77-0.326
			c0.156,0,0.331,0.034,0.507,0.127c5.914,3.025,10.84,6.987,16.049,11.187c2.236,1.797,4.546,3.658,6.923,5.422
			c7.752,5.744,15.829,11.128,24.014,16.005C1578.048,1657.953,1578.048,1659.078,1577.634,1659.883z M1672.089,1424.438
			c2.382,0,3.377,1.798,3.493,3.401c0.161,2.178-1.169,4.604-3.951,4.814c-23.187,1.759-45.881,9.203-65.632,21.53
			c-20.838,13.004-35.167,30.607-49.208,49.013c-0.93,1.223-2.869,1.325-4.019,0.658c-0.536-0.307-1.34-1.043-0.731-2.49
			c20.365-48.38,76.317-73.783,119.683-76.911C1671.85,1424.443,1671.967,1424.438,1672.089,1424.438z M1560.084,1571.132
			c0.794-0.351,1.866-0.273,2.456,0.706c9.749,16.024,16.57,34.197,23.167,51.771c0.906,2.412,1.813,4.818,2.719,7.211
			c7.707,20.317,14.884,41.262,21.335,62.261c12.848,41.846,23.415,85.583,31.42,130.002c0.453,2.495-1.384,4.219-3.333,4.57
			c-1.471,0.248-3.284-0.239-3.703-2.519c-7.937-43.717-18.358-86.782-30.981-127.995c-6.319-20.662-13.389-41.666-21.009-62.436
			c-2.748-7.498-5.817-15.055-8.789-22.363c-5.15-12.677-10.48-25.783-14.314-39.055
			C1558.73,1572.175,1559.373,1571.444,1560.084,1571.132z M1119.505,1417.008c0.253-1.398,1.326-1.89,2.334-1.89
			c0.097,0,0.19,0.005,0.282,0.015c1.354,0.122,2.724,1.072,2.724,2.66c0.01,36.385,17.462,71.264,46.68,93.296
			c54.655,41.227,132.394,29.023,185.193-1.345c51.834-29.813,90.173-78.743,105.189-134.241c0.614-2.251,2.577-2.796,4.258-2.358
			c1.666,0.443,3.187,1.964,2.587,4.259c-9.009,34.509-26.421,67.186-50.358,94.499c-46.46,53.003-115.503,81.754-180.263,75.093
			c-39.523-4.083-77.842-24.921-100.01-54.387C1121.113,1469.993,1114.677,1443.853,1119.505,1417.008z"/>
	</g>
	<g>
		<path style="fill:#fd8f4d;" d="M685.479,1609.938c-0.148-0.097-0.334-0.141-0.504-0.087c-12.941,3.24-26.322,6.022-39.776,8.268
			c-12.207,1.13-23.488,1.388-34.394,0.789c-4.887-1.062-9.72-2.353-14.263-3.805c-4.059-2.168-8.088-4.575-12.244-7.303
			c-5.832-5.257-11.567-11.128-17.004-17.393c-9.847-14.187-18.621-29.739-26.813-47.508c-15.62-39.829-27.104-82.977-34.13-128.219
			c-4.57-40.75-5.208-82.012-1.912-122.523c2.724-9.74,3.859-20.902,4.858-30.753c0.456-4.482,0.884-8.711,1.422-12.424
			c8.578-58.957,7.335-108.551-3.798-151.625c-5.406-20.912-13.393-41.33-21.121-61.077l-7.566-19.299
			c-8.538-29.713-15.232-60.475-21.705-90.224c-5.461-25.103-11.11-51.062-17.846-76.297c-2.439-9.145-5.15-17.869-11.44-24.095
			c-9.52-9.43-26.833-10.485-39.41-2.4c-10.836,6.962-18.541,19.817-21.14,35.269c-2.361,14.017-0.607,28.344,1.393,41.818
			c5.868,39.561,15.145,80.865,28.356,126.253c-9.306,6.483-16.159,15.881-19.352,26.541c-22.707,3.773-45.91,8.947-59.021,26.127
			c-0.948,1.242-1.842,2.548-2.704,3.815c-1.666,2.436-3.391,4.955-5.522,7.016c-3.104,2.991-7.077,5.018-10.919,6.977
			c-1.469,0.745-2.936,1.496-4.363,2.295c-13.299,7.464-23.467,20.964-27.9,37.038c-4.434,16.073-2.621,32.877,4.97,46.105
			c0.801,1.393,1.656,2.757,2.514,4.122c1.554,2.47,3.16,5.023,4.365,7.713c2.453,5.452,3.342,11.659,4.129,17.135l0.27,1.9
			c2.984,20.833,6.071,42.382,15.052,61.666c6.667,14.309,16.694,26.358,28.251,33.964
			c-5.627,103.771,13.683,210.981,55.854,310.055c21.306,50.056,49.742,90.792,82.236,117.802
			c29.372,24.419,56.246,39.542,87.137,49.038c21.07,6.48,44.911,9.832,69.009,9.832c8.373,0,16.78-0.405,25.108-1.228
			c29.523-2.904,58.012-7.684,84.677-14.202c0.176-0.044,0.327-0.161,0.407-0.322c0.083-0.161,0.09-0.351,0.022-0.521
			c-22.461-54.314-37.574-111.44-44.918-169.793C685.723,1610.202,685.625,1610.041,685.479,1609.938z M464.181,1285.832
			c-7.973,9.262-24.49,13.155-37.761,16.282c-2.777,0.658-5.401,1.277-7.793,1.905c-2.239,0.589-4.609,1.267-7.069,1.968
			c-12.962,3.698-29.099,8.302-41.26,4.18c-0.567-0.195-0.95-0.638-1.025-1.194c-0.076-0.565,0.18-1.106,0.685-1.447
			c8.241-5.579,19.571-7.503,30.528-9.364c5.564-0.941,10.821-1.837,15.645-3.177c8.414-2.333,16.767-4.984,24.833-7.873
			c1.573-0.56,3.118-1.174,4.653-1.783c5.038-2.003,9.82-3.907,15.135-3.907c0.538,0,1.082,0.019,1.63,0.063
			c1.072,0.078,1.939,0.672,2.316,1.588C465.077,1283.985,464.882,1285.018,464.181,1285.832z M398.666,1197.656
			c0.809-0.691,1.61-0.955,2.338-0.955c0.901,0,1.688,0.405,2.227,0.931c1.106,1.077,1.579,2.967,0.139,4.75
			c-9.858,12.215-14.626,25.354-19.671,39.264c-1.199,3.303-2.409,6.646-3.71,10.027c-0.4,1.043-1.476,1.491-2.368,1.476
			c-0.461-0.034-1.272-0.258-1.525-1.388C371.511,1231.537,384.127,1210.012,398.666,1197.656z M481.567,1172.848
			c-10.068,1.978-20.297,4.078-30.193,6.105c-20.173,4.141-41.035,8.419-61.64,11.893c-7.915,1.33-16.146,1.944-22.587-2.582
			c-0.178-0.122-0.402-0.156-0.599-0.063c-0.198,0.083-0.339,0.264-0.375,0.473c-2.198,13.16-20.643,22.684-34.132,21.237
			c-21.747-2.329-48.507-25.252-47.571-47.708c0.061-1.471,0.823-2.538,2.095-2.933c0.292-0.092,0.619-0.141,0.957-0.141
			c0.999,0,2.122,0.429,2.921,1.505c2.18,2.924,3.871,6.212,5.505,9.398c1.567,3.05,3.189,6.207,5.257,9.092
			c4.531,6.309,10.711,12.01,17.873,16.482c10.395,6.485,22.039,7.932,30.395,3.8c4.643-2.304,10.395-7.386,11.423-18.524
			c0.01-0.107-0.007-0.214-0.054-0.316c-2.307-5.126-2.599-11.469-0.818-17.861c0.353-1.277,0.765-2.558,1.259-3.932
			c0.097-0.273-0.008-0.58-0.251-0.736c-17.661-11.249-34.953-36.014-32.545-54.947c0.18-1.418,1.432-2.719,2.848-2.963
			c1.077-0.2,1.976,0.307,2.528,1.393c2.166,4.258,3.667,8.828,5.118,13.242c1.846,5.623,3.756,11.43,7.069,16.814
			c4.658,7.566,10.119,13.34,17.425,20.2c0.139,0.131,0.319,0.185,0.531,0.161c0.19-0.029,0.358-0.151,0.448-0.326
			c5.818-11.109,15.679-21.106,28.512-28.916c0.141-0.083,0.243-0.225,0.282-0.385c0.039-0.161,0.012-0.331-0.075-0.473
			c-9.472-15.439-15.491-37.101-16.103-57.947c-0.048-1.642,1.228-2.538,2.514-2.701c1.284-0.153,2.665,0.383,3.016,1.939
			c0.639,2.836,1.218,5.656,1.796,8.468c1.513,7.376,3.082,15.006,5.657,22.416c1.464,4.215,3.074,8.458,4.628,12.57
			c1.472,3.883,2.991,7.898,4.385,11.868c0.061,0.17,0.19,0.307,0.358,0.375c0.166,0.068,0.356,0.058,0.514-0.024
			c24.044-12.229,54.149-16.258,76.706-10.28c0.838,0.219,1.25,1.16,1.208,1.93c-0.02,0.36-0.168,1.218-1.143,1.373
			c-6.66,1.033-13.425,1.589-19.968,2.129c-11.944,0.984-24.295,2.007-36.283,5.958c-19.386,6.397-35.366,18.007-44.999,32.697
			c-4.465,6.812-8.431,16.965-4.919,23.162c2.027,3.581,6.258,5.247,12.458,5.013c7.306-0.292,14.967-2.114,22.378-3.883
			c3.496-0.828,6.799-1.617,10.083-2.256l63.111-12.297c3.668-0.721,6.202,1.929,6.758,4.775
			C485.764,1169.34,485.039,1172.17,481.567,1172.848z"/>
		<path style="fill:#fd8f4d;" d="M1429.045,1300.736c-1.54-23.562-3.645-47.059-6.256-69.851l-0.56-4.872l-3.611,3.318
			c-17.257,15.883-38.835,29.578-67.897,43.103c-22.724,10.602-131.401,45.54-206.1,45.588h-2.855l1.701,12.614
			c1.792,13.389,3.663,27.596,5.072,41.165c4.507,43.372,11.503,87.975,42.518,115.021c17.033,14.85,40.078,22.509,64.716,22.509
			c16.258,0,33.208-3.337,49.569-10.153c38.373-16.005,67.965-46.758,91.858-74.733c10.777-12.634,21.803-26.344,27.771-42.767
			c6.753-18.568,6.382-38.499,5.349-58.986C1429.95,1315.371,1429.522,1308.048,1429.045,1300.736z"/>
		<path style="fill:#fd8f4d;" d="M1665.103,757.497c-11.269-8.351-25.871-13.449-42.236-14.746
			c-5.184-0.414-10.68-0.395-16.356,0.039c-31.605,2.431-63.61,19.286-85.608,45.084c-6.558,7.686-13.72,18.512-20.171,30.487
			c-8.312,7.822-16.468,11.998-25.647,13.14c-7.522,0.947-14.042-1.155-17.345-5.611c-5.393-7.277-1.164-17.795,1.929-25.476
			c8.687-21.581,13.199-44.322,13.404-67.598c0.204-23.152-4.103-43.313-12.804-59.924c-2.514-4.809-5.481-9.452-8.346-13.944
			c-3.06-4.797-6.222-9.754-8.828-14.894c-8.2-16.173-11.264-35.423-8.857-55.671c0.029-0.221-0.068-0.443-0.249-0.575
			c-0.19-0.137-0.433-0.166-0.624-0.068c-140.906,63.125-304.458,67.629-448.73,12.355c-0.185-0.065-0.395-0.048-0.563,0.059
			c-0.168,0.109-0.273,0.29-0.285,0.489c-1.274,22.818-1.32,46.616-1.364,69.627c-0.01,4.36-0.017,8.723-0.035,13.086
			l-1.413,373.583c-0.097,25.427-0.194,51.722,5.861,76.964c13.25,55.23,56.997,101.364,111.449,117.53
			c11.42,3.391,23.786,5.72,38.908,7.328c12.053,1.281,24.327,1.929,34.884,2.441c17.155,0.833,34.831,1.486,52.687,1.486
			c61.749,0,125.51-7.82,176.185-43.089c5.554-3.863,10.991-8.127,16.619-13.038c29.291-25.53,53.359-61.778,69.603-104.828
			c18.149-48.071,25.486-99.744,30.943-144.405c0.726-5.931,1.476-12.377,2.358-20.233c28.541,8.124,65.438,5.488,85.881-1.184
			c35.508-11.589,65.228-39.111,79.503-73.618C1699.928,828.29,1697.317,781.372,1665.103,757.497z M1020.46,717.328
			c-2.823,1.769-5.847,1.951-8.524,0.526c-3.104-1.659-5.267-5.221-5.379-8.865c-0.102-3.289,1.471-6.105,4.429-7.93
			c13.111-8.078,28.063-12.397,42.645-12.397c1.822,0,3.642,0.066,5.449,0.202c9.793,0.74,33.35,4.066,40.536,18.967
			c0.891,1.849,0.736,4.226-0.39,5.912c-0.926,1.388-2.319,2.102-4.078,2.01c-6.032-0.336-11.883-2.271-17.544-4.144
			c-5.886-1.946-11.973-3.961-18.446-4.29C1045.225,706.634,1032.209,709.981,1020.46,717.328z M1062.499,831.713
			c-14.497,0-26.293-14.377-26.293-32.051s11.796-32.054,26.293-32.054c14.497,0,26.292,14.38,26.292,32.054
			S1076.996,831.713,1062.499,831.713z M1094.828,960.953c-8.74-17.725-9.359-39.586-1.827-64.977
			c2.402-8.095,5.452-16.129,8.405-23.9c1.871-4.916,3.8-10.003,5.554-15.06c3.639-10.514,5.9-21.388,8.083-31.907
			c0.541-2.594,1.082-5.194,1.642-7.8c0.405-1.873,2.178-2.704,3.771-2.704h0.053c1.413,0.018,3.196,0.731,3.571,2.69
			c3.922,20.404-3.113,40.451-9.915,59.839c-5.734,16.346-11.664,33.25-11.211,50.543c0.482,18.256,8.283,33.411,20.872,40.543
			c8.443,4.779,17.944,5.476,26.753,1.949c9.437-3.778,16.906-12.09,19.981-22.236c1.657-5.477,6.675-6.746,10.607-5.618
			c3.839,1.101,7.308,4.743,5.847,10.144c-5.491,20.334-21.807,34.222-42.577,36.246
			C1123.281,990.787,1104.285,980.132,1094.828,960.953z M1329.663,1047.656c-16.931,19.447-47.976,35.155-83.05,42.015
			c-15.703,3.074-31.245,4.131-46.193,3.118c-15.172-1.023-32.37-2.796-44.463-10.947c-2.451-1.652-2.977-4.775-2.227-7.011
			c0.341-1.018,1.457-3.323,4.599-3.323c0.112,0,0.229,0.005,0.346,0.01c7.103,0.366,14.241,1.837,21.14,3.264
			c6.67,1.379,13.569,2.802,20.521,3.26c14.992,0.974,29.802-0.029,43.99-3.001c14.933-3.123,28.95-8.039,41.671-14.597
			c9.013-4.65,17.014-10.602,24.746-16.355c3.381-2.511,6.874-5.111,10.431-7.591c2.806-1.956,5.827-1.649,8.073,0.85
			C1331.593,1039.957,1332.391,1044.526,1329.663,1047.656z M1236.806,799.662c0-17.674,11.795-32.054,26.295-32.054
			c14.494,0,26.29,14.38,26.29,32.054s-11.796,32.051-26.29,32.051C1248.601,831.713,1236.806,817.335,1236.806,799.662z
			 M1346.199,715.569c-1.281,2.09-4.088,3.406-6.382,3.011c-8.185-1.435-16.093-3.995-23.737-6.473
			c-10.1-3.269-20.541-6.65-31.781-7.498c-3.396-0.256-6.753-0.385-10.08-0.385c-16.073,0-31.454,2.992-46.748,9.067
			c-4.088,1.62-6.884,0.402-8.517-0.894c-2.835-2.254-4.326-6.519-3.707-10.609c0.351-2.326,1.71-6.531,6.835-8.524
			c21.827-8.494,45.076-11.372,67.284-8.312c27.771,3.827,46.265,12.3,56.546,25.9
			C1347.359,712.773,1346.867,714.478,1346.199,715.569z M1647.904,795.182c-6.022,2.39-12.545,3.581-18.859,4.731
			c-5.9,1.077-12,2.193-17.788,4.283c-9.588,3.471-18.504,8.149-26.489,13.898c-0.204,0.148-0.302,0.407-0.239,0.655
			c0.058,0.246,0.264,0.431,0.512,0.468c14.66,2.151,30.981,14.584,36.384,27.715c3.815,9.287,3.727,30.405-4.204,40.551
			c-3.469,4.438-8.01,6.273-13.491,5.469c-2.597-0.382-3.342-3.495-3.045-5.581c0.478-3.294,2.451-5.837,4.541-8.529
			c1.866-2.407,3.8-4.894,4.731-8.058c1.988-6.755,1.384-14.227-1.656-20.497c-4.146-8.548-12.444-13.367-18.675-15.903
			c-3.537-1.442-7.274-2.061-10.884-2.658c-2.446-0.405-4.975-0.824-7.377-1.496c-0.224-0.063-0.458,0.007-0.619,0.173
			c-6.748,7.118-12.443,15.069-16.926,23.634c-3.702,7.063-5.715,14.497-7.659,21.691c-1.306,4.831-2.66,9.824-4.512,14.655
			c-1.159,3.028-3.747,3.783-5.574,3.542c-1.822-0.256-4.054-1.686-4.336-4.88c-2.188-24.75,17.466-55.459,38.012-73.001
			c11.055-9.437,23.518-16.57,37.043-21.198c7.776-2.663,17.969-5.642,27.751-5.642c4.643,0,9.199,0.672,13.355,2.368
			c0.843,0.346,1.364,1.048,1.364,1.832C1649.258,794.181,1648.752,794.846,1647.904,795.182z"/>
		<path style="fill:#fd8f4d;" d="M1887.972,1799.269l-0.682-2.919l-2.748,1.203c-9.096,4-22.641,9.754-35.542,15.235
			c-17.759,7.547-33.096,14.061-36.244,15.712c-26.646,14.008-52.477,30.047-76.784,47.674
			c-12.127,8.784-24.205,18.679-39.157,32.087l-0.96,0.858l0.146,1.281c1.973,17.267,5.613,50.076,7.776,75.8l0.19,2.285h197.008
			l0.205-2.271C1906.778,1923.468,1902.335,1860.569,1887.972,1799.269z"/>
	</g>
	<path style="fill:#EA524C;" d="M613.803,429.002c-32.129-32.119-74.801-50.843-120.153-52.721l-2.597-0.107V561.73H305.497
		l0.107,2.597c1.878,45.352,20.6,88.022,52.719,120.153c34.129,34.117,79.496,52.909,127.742,52.914
		c48.244-0.005,93.61-18.797,127.739-52.914c34.117-34.131,52.909-79.498,52.914-127.739
		C666.712,508.5,647.92,463.134,613.803,429.002z"/>
	<g>
		<path style="fill:#F3B24C;" d="M266.286,472.639c-2.597,11.079-4.153,22.448-4.621,33.788l-0.107,2.597h175.578v-38.309H266.736
			L266.286,472.639z"/>
		<path style="fill:#F3B24C;" d="M434.539,333.551c-45.315,1.873-87.963,20.575-120.09,52.658l-4.263,4.261h126.95v-57.026
			L434.539,333.551z"/>
		<path style="fill:#F3B24C;" d="M278.778,436.817c-3.182,6.709-5.993,13.788-8.361,21.035l-1.069,3.269h167.788V435.39H279.453
			L278.778,436.817z"/>
		<path style="fill:#F3B24C;" d="M301.238,400.995c-5.352,6.663-10.258,13.739-14.587,21.035l-2.233,3.766h152.718v-25.734H301.986
			L301.238,400.995z"/>
	</g>
	<g>
		<path style="fill:#2F292A;" d="M914.482,1455.357c-9.052,7.747-17.6,15.064-25.749,21.086l-0.49,0.366l-0.268,0.545
			c-12.38,25.277-22.906,51.352-31.284,77.496c-22.178,69.184-32.085,146.207-29.442,228.916l0.27,8.288l3.333-1.365
			c17.108-7.001,32.478-13.773,46.984-20.711l1.401-0.672l0.017-1.554c0.37-35.26,1.744-69.91,3.04-99.152
			c1.691-38.139,12.558-168.511,81.459-244.887l11.359-12.589l-14.504,8.784C944.504,1429.661,929.242,1442.728,914.482,1455.357z"
			/>
		<path style="fill:#2F292A;" d="M1172.231,1258.09c-10.519-0.511-22.738-1.155-34.704-2.426l-3.016-0.322l0.268,3.021
			c1.851,20.819,4.54,41.437,7.371,62.485l0.287,2.163h2.183c76.653-0.048,184.448-34.972,208.204-46.056
			c29.545-13.749,51.523-27.713,69.174-43.951l0.916-0.848l-0.127-1.238c-0.127-1.291-0.278-2.601-0.468-4.283
			c-0.814-6.962-1.69-13.939-2.689-20.896l-0.653-4.536l-3.454,3.011c-5.544,4.833-10.894,9.028-16.35,12.828
			C1334.642,1261.949,1248.177,1261.773,1172.231,1258.09z"/>
		<path style="fill:#130206;" d="M1606.749,745.898l1.33-0.103l0.653-1.159c2.227-3.946,3.552-8.368,4.716-12.56
			c23.571-84.935,40.843-161.023,13.335-232.075c-6.48-16.738-21.588-45.861-49.973-52.845c-3.371-0.831-6.874-1.308-10.445-1.423
			c4.487-55.756-26.602-111.442-83.625-149.442c-47.985-31.983-111.245-47.937-182.704-46.183
			c-63.805,1.583-126.748,16.253-187.62,30.441l-111.332,25.944c-30.168,7.033-64.356,14.994-96.373,6.724
			c-29.578-7.647-58.96-35.681-54.847-67.639l1.047-8.156l-5.403,6.197c-69.836,80.1-63.469,214.521,13.622,287.664
			c18.952,17.98,42.704,33.829,74.745,49.88c15.915,7.969,32.616,15.318,49.644,21.844
			c143.703,55.052,306.421,51.118,447.191-10.677c-1.583,19.281,1.71,37.569,9.603,53.135c2.68,5.276,5.881,10.302,8.984,15.16
			c2.831,4.436,5.754,9.025,8.21,13.715c8.458,16.151,12.648,35.817,12.448,58.451c-0.2,22.56-4.755,45.542-13.179,66.46
			c-3.177,7.893-7.976,19.82-1.54,28.497c3.376,4.558,9.339,7.091,16.385,7.091c1.252,0,2.538-0.08,3.849-0.244
			c9.764-1.216,18.748-5.805,27.474-14.034l0.487-0.634c6.271-11.651,13.501-22.597,19.844-30.031
			C1544.747,764.717,1575.953,748.268,1606.749,745.898z"/>
		<path style="fill:#2F292A;" d="M1144.738,991.808c22.095-2.154,39.45-16.918,45.286-38.536c1.924-7.106-2.568-12.4-8-13.954
			c-5.544-1.589-12.282,0.555-14.451,7.71c-2.801,9.247-9.588,16.816-18.154,20.246c-7.907,3.169-16.443,2.541-24.058-1.769
			c-11.625-6.587-18.836-20.76-19.289-37.912c-0.438-16.719,5.394-33.347,11.036-49.43c6.938-19.776,14.115-40.227,10.036-61.457
			c-0.595-3.082-3.245-5.182-6.602-5.22c-3.44,0.002-6.241,2.085-6.903,5.165c-0.565,2.614-1.106,5.223-1.647,7.822
			c-2.266,10.904-4.404,21.198-7.98,31.522c-1.74,5.025-3.63,10-5.52,14.975c-2.972,7.822-6.046,15.912-8.482,24.12
			c-7.756,26.168-7.079,48.791,2.022,67.242c9.106,18.463,27.352,29.732,47.445,29.732
			C1141.22,992.064,1142.974,991.981,1144.738,991.808z"/>
		<path style="fill:#2F292A;" d="M1887.972,1799.269c-1.788-7.596-3.946-15.859-6.597-25.253l-0.663-2.348l-2.363,0.609
			c-65.301,16.926-129.929,36.653-192.102,58.631l-2.003,0.711l0.38,2.09c0.706,3.863,1.427,7.722,2.153,11.566
			c1.189,6.319,2.373,12.604,3.43,18.826c0.687,4.088,3.04,22.523,5.793,46.304l0.555,4.789l3.591-3.22
			c14.816-13.286,26.768-23.079,38.753-31.761c24.112-17.486,49.744-33.399,76.171-47.293c2.972-1.554,18.957-8.351,35.883-15.542
			c12.921-5.49,26.485-11.254,35.595-15.255l1.9-0.838L1887.972,1799.269z"/>
		<path style="fill:#2F292A;" d="M1200.538,1074.928c-6.733-0.443-13.52-1.842-20.087-3.201c-7.016-1.447-14.271-2.948-21.613-3.323
			c-3.703-0.253-6.879,1.885-8.063,5.438c-1.306,3.907,0.141,8.356,3.44,10.587c12.735,8.585,30.421,10.422,45.997,11.474
			c3.732,0.248,7.498,0.375,11.298,0.375c11.683,0,23.65-1.184,35.703-3.547c35.732-6.987,67.435-23.074,84.804-43.028
			c4.005-4.597,2.758-10.872-0.448-14.441c-3.284-3.664-8.068-4.183-12.175-1.323c-3.586,2.5-7.055,5.079-10.509,7.647
			c-7.985,5.941-15.527,11.552-24.317,16.086c-12.468,6.431-26.222,11.249-40.877,14.319
			C1229.771,1074.899,1215.252,1075.898,1200.538,1074.928z"/>
		<path style="fill:#2F292A;" d="M1289.79,681.864c-22.704-3.128-46.509-0.19-68.838,8.494c-4.813,1.871-8.014,5.869-8.789,10.962
			c-0.794,5.24,1.111,10.546,4.853,13.518c3.225,2.565,7.347,3.038,11.605,1.352c18.012-7.157,36.136-9.932,55.44-8.473
			c10.875,0.821,20.677,3.995,31.06,7.357c7.747,2.509,15.756,5.104,24.161,6.577c0.443,0.078,0.896,0.114,1.354,0.114
			c3.177,0,6.538-1.81,8.224-4.57c1.613-2.633,1.437-5.707-0.463-8.221C1337.595,694.678,1318.423,685.811,1289.79,681.864z"/>
		<path style="fill:#2F292A;" d="M1059.001,710.437c6.051,0.307,11.676,2.166,17.625,4.136c5.856,1.934,11.907,3.937,18.353,4.295
			c2.762,0.18,5.296-1.082,6.84-3.393c1.744-2.611,1.983-6.144,0.604-8.996c-7.605-15.773-30.275-19.754-43.108-20.721
			c-16.938-1.282-34.66,3.216-49.964,12.648c-3.893,2.4-6.046,6.293-5.912,10.682c0.149,4.724,2.972,9.352,7.03,11.518
			c1.668,0.892,3.425,1.335,5.198,1.335c2.163-0.003,4.353-0.66,6.446-1.968C1033.313,712.972,1045.725,709.747,1059.001,710.437z"
			/>
		<path style="fill:#2F292A;" d="M1263.101,764.49c-16.219,0-29.413,15.778-29.413,35.172c0,19.393,13.193,35.169,29.413,35.169
			c16.214,0,29.408-15.776,29.408-35.169C1292.509,780.268,1279.315,764.49,1263.101,764.49z"/>
		<path style="fill:#2F292A;" d="M1062.499,764.49c-16.217,0-29.411,15.778-29.411,35.172c0,19.393,13.194,35.169,29.411,35.169
			s29.41-15.776,29.41-35.169C1091.91,780.268,1078.716,764.49,1062.499,764.49z"/>
		<path style="fill:#2F292A;" d="M1671.499,1421.339c-44.287,3.201-101.461,29.228-122.333,78.811
			c-1.057,2.509-0.239,5.081,2.042,6.402c0.911,0.531,2.047,0.823,3.206,0.823c1.788,0,3.64-0.692,4.857-2.285
			c13.861-18.173,27.99-35.537,48.38-48.263c19.323-12.063,41.53-19.347,64.219-21.062c4.623-0.356,7.098-4.424,6.82-8.156
			C1678.403,1423.698,1675.422,1421.144,1671.499,1421.339z"/>
		<path style="fill:#2F292A;" d="M1612.737,1692.165c-6.465-21.062-13.661-42.076-21.393-62.451l-2.714-7.201
			c-6.65-17.71-13.525-36.019-23.43-52.297c-1.311-2.168-3.981-2.986-6.373-1.939c-2.333,1.028-3.473,3.444-2.772,5.875
			c3.883,13.427,9.242,26.611,14.421,39.361c2.963,7.284,6.022,14.816,8.75,22.261c7.601,20.716,14.65,41.671,20.955,62.275
			c12.585,41.096,22.982,84.044,30.894,127.639c0.57,3.138,3.016,5.15,6.046,5.15c0.414,0,0.843-0.039,1.281-0.117
			c3.484-0.633,6.626-3.868,5.847-8.194C1636.225,1777.992,1625.624,1734.128,1612.737,1692.165z"/>
		<path style="fill:#2F292A;" d="M1578.384,1654.523c-8.093-4.823-16.083-10.149-23.752-15.83c-2.339-1.734-4.585-3.547-6.826-5.35
			c-5.101-4.112-10.378-8.36-16.585-11.532c-1.671-0.853-3.639-0.516-4.926,0.799c-1.267,1.301-1.53,3.259-0.653,4.867
			c9.418,17.408,30.392,28.545,47.615,36.302c0.755,0.341,1.545,0.502,2.314,0.502c1.973,0,3.844-1.077,4.823-2.962
			C1581.687,1658.845,1580.84,1655.984,1578.384,1654.523z"/>
		<path style="fill:#2F292A;" d="M1466.969,1370.134c-3.182-0.857-6.957,0.453-8.073,4.555
			c-14.802,54.704-52.609,102.948-103.732,132.351c-51.902,29.871-128.234,41.929-181.763,1.559
			c-28.443-21.447-45.428-55.396-45.438-90.806c0-3.006-2.392-5.486-5.564-5.769c-2.991-0.204-5.447,1.559-5.963,4.429
			c-4.989,27.722,1.652,54.704,19.196,78.027c22.67,30.139,61.822,51.449,102.177,55.615c6.305,0.653,12.638,0.974,18.996,0.974
			c59.951-0.005,121.335-28.511,163.932-77.115c24.254-27.669,41.9-60.784,51.031-95.761
			C1472.845,1374.075,1470.097,1370.967,1466.969,1370.134z"/>
		<path style="fill:#2F292A;" d="M377.397,1256.258c0.124,0.01,0.249,0.015,0.373,0.015c2.222,0,4.339-1.418,5.13-3.479
			c1.306-3.4,2.526-6.763,3.73-10.08c4.955-13.661,9.634-26.563,19.167-38.373c2.538-3.147,1.727-6.879-0.388-8.94
			c-2.443-2.382-6.044-2.436-8.762-0.122c-15.255,12.964-28.465,35.673-23.593,57.169
			C373.548,1254.64,375.214,1256.102,377.397,1256.258z"/>
		<path style="fill:#2F292A;" d="M477.976,1159.284l-63.111,12.298c-3.33,0.652-6.75,1.466-10.209,2.29
			c-7.264,1.729-14.777,3.517-21.779,3.795c-5.001,0.195-8.219-0.95-9.622-3.43c-2.624-4.633,0.656-13.574,4.814-19.917
			c9.25-14.104,24.65-25.271,43.369-31.444c11.637-3.839,23.259-4.799,35.562-5.813c6.599-0.545,13.42-1.11,20.192-2.158
			c2.144-0.336,3.661-2.061,3.776-4.292c0.124-2.383-1.357-4.531-3.523-5.106c-22.463-5.953-52.131-2.304-76.378,9.267
			c-1.125-3.109-2.297-6.202-3.469-9.296c-1.571-4.151-3.145-8.307-4.599-12.487c-2.509-7.216-3.985-14.407-5.549-22.022
			c-0.58-2.831-1.164-5.671-1.805-8.524c-0.651-2.904-3.364-4.719-6.446-4.348c-3.126,0.395-5.33,2.867-5.245,5.885
			c0.6,20.429,6.285,41.651,15.301,57.359c-11.223,7.211-20.117,16.102-25.964,25.959c-5.973-5.754-10.609-10.899-14.584-17.354
			c-3.121-5.072-4.889-10.455-6.763-16.151c-1.488-4.531-3.028-9.218-5.301-13.686c-1.174-2.304-3.425-3.498-5.842-3.055
			c-2.777,0.483-5.052,2.855-5.408,5.642c-2.48,19.508,14.441,44.662,32.317,56.887c-0.246,0.755-0.475,1.515-0.69,2.29
			c-1.905,6.835-1.649,13.671,0.707,19.347c-0.831,7.357-4.153,12.673-9.639,15.391c-7.391,3.664-17.878,2.266-27.357-3.649
			c-6.821-4.258-12.697-9.671-16.992-15.654c-1.934-2.699-3.433-5.613-5.016-8.701c-1.693-3.294-3.444-6.704-5.78-9.837
			c-1.713-2.299-4.648-3.308-7.298-2.475c-2.531,0.78-4.176,2.996-4.29,5.783c-0.999,23.995,27.327,48.472,50.358,50.933
			c1.021,0.107,2.066,0.161,3.131,0.161c13.276,0,29.176-8.317,33.525-20.585c6.719,3.221,14.441,2.587,21.885,1.335
			c20.658-3.483,41.547-7.766,61.747-11.912c10.056-2.061,20.11-4.121,30.166-6.099c4.57-0.897,7.13-4.756,6.224-9.384
			C487.545,1162.192,483.611,1158.217,477.976,1159.284z"/>
		<path style="fill:#2F292A;" d="M462.612,1278.373c-6.709-0.463-12.519,1.817-18.149,4.058c-1.501,0.595-3.013,1.199-4.551,1.749
			c-7.995,2.865-16.277,5.486-24.616,7.805c-4.67,1.296-9.849,2.173-15.333,3.103c-11.286,1.92-22.955,3.903-31.754,9.856
			c-1.486,1.004-2.263,2.709-2.03,4.448c0.234,1.725,1.428,3.157,3.116,3.727c3.749,1.272,7.793,1.788,11.969,1.788
			c10.39,0,21.6-3.201,31.147-5.919c2.439-0.697,4.789-1.369,7.009-1.954c2.365-0.624,4.972-1.238,7.715-1.886
			c13.71-3.23,30.775-7.25,39.408-17.281c1.464-1.7,1.861-3.995,1.036-5.988C466.753,1279.888,464.851,1278.543,462.612,1278.373z"
			/>
		<path style="fill:#2F292A;" d="M1605.785,791.896c-13.9,4.758-26.704,12.083-38.056,21.776
			c-20.506,17.505-41.486,48.646-39.094,75.649c0.356,4.064,3.172,7.155,7.006,7.691c0.39,0.054,0.77,0.08,1.15,0.08
			c3.415,0,6.45-2.139,7.771-5.593c1.91-4.977,3.279-10.051,4.609-14.957c1.988-7.354,3.864-14.3,7.411-21.057
			c4.126-7.883,9.311-15.232,15.425-21.866c2.085,0.497,4.18,0.845,6.226,1.184c3.601,0.594,7.001,1.157,10.216,2.468
			c8.093,3.296,14.144,8.402,17.043,14.377c2.665,5.498,3.215,12.322,1.471,18.256c-0.765,2.597-2.436,4.748-4.205,7.026
			c-2.246,2.894-4.565,5.886-5.164,9.997c-0.56,3.927,1.242,8.456,5.681,9.109c6.553,0.955,12.254-1.325,16.404-6.633
			c8.891-11.374,8.672-33.807,4.628-43.656c-5.164-12.545-18.957-24.112-33.009-28.312c6.495-4.143,13.545-7.6,21.018-10.304
			c5.54-2.003,11.513-3.094,17.286-4.146c6.46-1.179,13.14-2.399,19.449-4.901c2.042-0.809,3.313-2.597,3.328-4.662
			c0.01-2.052-1.286-3.91-3.308-4.734C1635.198,783.019,1617.721,787.808,1605.785,791.896z"/>
		<path style="fill:#2F292A;" d="M450.232,521.496V320.885c0-0.343-0.28-0.624-0.624-0.624h-7.484
			c-106.828,0.005-193.744,86.921-193.749,193.751v7.484c0,0.344,0.28,0.624,0.624,0.624h200.609
			C449.952,522.12,450.232,521.84,450.232,521.496z M434.018,505.906h-169.21c0.487-10.765,1.966-21.547,4.402-32.073h164.809
			V505.906z M434.018,458.004H273.65c2.227-6.709,4.84-13.262,7.776-19.496h152.592V458.004z M434.018,422.678H289.896
			c4.064-6.75,8.629-13.303,13.586-19.498h130.536V422.678z M434.018,387.351h-116.29c31.289-30.728,72.504-48.687,116.29-50.658
			V387.351z"/>
		<path style="fill:#2F292A;" d="M292.315,549.258v7.484c0.005,106.828,86.92,193.744,193.748,193.749
			c106.828-0.005,193.744-86.921,193.749-193.749c-0.005-106.828-86.921-193.744-193.749-193.749h-7.483
			c-0.343,0-0.624,0.28-0.624,0.624v185.018H292.939C292.595,548.634,292.315,548.915,292.315,549.258z M493.547,564.849
			c0.344,0,0.624-0.28,0.624-0.624V379.424c44.324,1.998,86.007,20.373,117.427,51.783c33.528,33.544,51.995,78.127,52,125.534
			c-0.005,47.408-18.472,91.99-52,125.534c-33.539,33.527-78.124,51.995-125.534,52c-47.413-0.005-91.997-18.473-125.537-52
			c-31.408-31.422-49.783-73.103-51.781-117.427H493.547z"/>
		<polygon style="fill:#130206;" points="731.102,667.024 774.577,696.339 711.969,789.187 608.931,742.678 607.552,741.299 
			607.002,741.835 606.273,741.518 605.516,743.284 495.867,850.198 509.801,864.488 611.216,765.606 717.189,813.438 
			719.223,814.68 720.295,812.534 791.123,707.496 823.084,729.048 828.375,621.979 		"/>
	</g>
</g>
</svg>
